# xmcd
# Copyright (C) 1995-1998 Ti Kan
#
# Track frame offsets:
#       150
#       19291
#       32751
#       49258
#       62093
#       81684
#       95060
#       112879
#       129785
#       145093
#       162740
#
# Disc length: 2425 seconds
#
# Revision: 0
# Processed by: cddbd v1.5.2PL0 Copyright (c) Steve Scherf et al.
# Submitted via: CD-Import v1.0
#
DISCID=9a09770b
DTITLE=Architecture In Helsinki - Moment Bends
DYEAR=11
DGENRE=
TTITLE0=Desert Island
TTITLE1=Escapee
TTITLE2=Contact High
TTITLE3=W.o.w
TTITLE4=Yr Go To
TTITLE5=Sleep Talkin'
TTITLE6=I Know Deep Down
TTITLE7=That Beep
TTITLE8=Denial Style
TTITLE9=Everything's Blue
TTITLE10=B4 3d
EXTD=
EXTT0=
EXTT1=
EXTT2=
EXTT3=
EXTT4=
EXTT5=
EXTT6=
EXTT7=
EXTT8=
EXTT9=
EXTT10=
PLAYORDER=
